<?xml version="1.0" standalone="no"?><!DOCTYPE svg PUBLIC "-//W3C//DTD SVG 1.1//EN" "http://www.w3.org/Graphics/SVG/1.1/DTD/svg11.dtd"><svg t="1761911989885" class="icon" viewBox="0 0 1029 1024" version="1.1" xmlns="http://www.w3.org/2000/svg" p-id="6504" xmlns:xlink="http://www.w3.org/1999/xlink" width="200.9765625" height="200"><path d="M891.440739 175.006771a27.344808 27.344808 0 0 1-32.81377 38.282731 453.923812 453.923812 0 1 0 114.848193 300.792887 27.344808 27.344808 0 0 1 49.220655 0 508.613428 508.613428 0 1 1-125.786117-333.606657z" fill="#0A7AF8" p-id="6505"></path><path d="M853.158008 54.689616a27.344808 27.344808 0 0 1 49.220654 0v169.537809h-169.537809a27.344808 27.344808 0 0 1 0-49.220654h114.848193zM410.172119 683.620198a16.406885 16.406885 0 0 0 16.406885-16.406884V486.737581a16.406885 16.406885 0 0 0-16.406885-16.406885 16.406885 16.406885 0 0 0-16.406885 16.406885v180.475733a16.406885 16.406885 0 0 0 16.406885 16.406884z m98.441309 0a16.406885 16.406885 0 0 0 16.406884-16.406884V486.737581a16.406885 16.406885 0 0 0-16.406884-16.406885 16.406885 16.406885 0 0 0-16.406885 16.406885v180.475733a16.406885 16.406885 0 0 0 16.406885 16.406884z m98.441308 0a16.406885 16.406885 0 0 0 16.406885-16.406884V486.737581a16.406885 16.406885 0 0 0-16.406885-16.406885 16.406885 16.406885 0 0 0-16.406885 16.406885v180.475733a16.406885 16.406885 0 0 0 16.406885 16.406884z m82.034424-371.889388h-71.096501a65.627539 65.627539 0 0 0-60.158577-49.220654H459.392773a65.627539 65.627539 0 0 0-60.158577 49.220654H328.137695a65.627539 65.627539 0 0 0-65.627539 60.158578v16.406885h16.406885v16.406884h32.813769v306.261849a65.627539 65.627539 0 0 0 65.627539 65.627539h262.510157a65.627539 65.627539 0 0 0 65.627539-65.627539V404.703157h32.813769v-16.406884h16.406885v-16.406885a65.627539 65.627539 0 0 0-65.627539-65.627539z m-229.696387-16.406884h98.441309a32.81377 32.81377 0 0 1 27.344808 16.406884H432.047965a32.81377 32.81377 0 0 1 27.344808-16.406884z m213.289502 421.110042a32.81377 32.81377 0 0 1-32.813769 32.813769H377.358349c-16.406885 0-32.81377-16.406885-32.813769-32.813769V404.703157h322.668734v306.261849zM295.323926 371.889388a32.81377 32.81377 0 0 1 32.813769-32.81377h355.482503a32.81377 32.81377 0 0 1 32.81377 32.81377z" fill="#0A7AF8" p-id="6506"></path></svg>