<?xml version="1.0" standalone="no"?><!DOCTYPE svg PUBLIC "-//W3C//DTD SVG 1.1//EN" "http://www.w3.org/Graphics/SVG/1.1/DTD/svg11.dtd"><svg t="1761911850045" class="icon" viewBox="0 0 1024 1024" version="1.1" xmlns="http://www.w3.org/2000/svg" p-id="4644" xmlns:xlink="http://www.w3.org/1999/xlink" width="200" height="200"><path d="M788.1728 144.9984a39.2192 39.2192 0 0 1 51.8656 3.2256L957.44 265.728c14.0288 13.9776 15.36 36.1984 3.2256 51.8656l-150.6816 193.7408a294.5024 294.5024 0 0 1-285.7984 364.6464c-91.5968 0-228.9152-39.2704-412.0576-117.76 74.5472-51.5072 118.1696-121.2416 130.816-209.2032 2.2528-15.7696 2.56-31.0272 6.5024-45.9264 41.5744-154.9824 190.0032-245.5552 344.8832-207.36z m-205.1584 220.3136c-117.76-31.5904-230.8096 35.2256-262.9632 155.2896-1.7408 6.4512-2.7136 13.7728-4.1984 32.0512-6.2464 75.776-32.0512 132.352-80.896 189.696 91.5456 36.0448 207.9744 61.44 290.4576 61.44a223.0272 223.0272 0 0 0 160.256-378.0608l-5.7856-5.7344a221.7472 221.7472 0 0 0-96.8704-54.6816z m227.584-143.5136l-135.4752 105.4208c21.1456 14.3872 40.6016 30.5152 58.368 48.2816 17.7664 17.7664 33.1264 36.5056 46.08 56.1152l105.3696-135.4752-74.3424-74.3424zM247.04 80.4864c4.096 1.3824 7.424 4.608 8.704 8.8064l18.944 58.9312c8.3968 26.0608 28.7744 46.4384 54.784 54.784l58.9824 18.944a13.568 13.568 0 0 1 0 25.8048l-58.9824 18.944a84.736 84.736 0 0 0-54.784 54.784l-18.944 58.9824a13.568 13.568 0 0 1-25.8048 0l-18.944-58.9824a84.736 84.736 0 0 0-54.784-54.784l-58.88-18.944a13.568 13.568 0 0 1 0-25.8048l58.88-18.944a84.736 84.736 0 0 0 54.784-54.784l18.944-58.9312a13.568 13.568 0 0 1 17.1008-8.7552z" p-id="4645"></path></svg>